<svg class="icon" viewBox="0 0 1024 1024" xmlns="http://www.w3.org/2000/svg" p-id="10034" width="200" height="200"><path d="M768 810.666667c46.933333 0 85.333333-38.4 85.333333-85.333334 0-32-27.733333-74.666667-85.333333-128-57.6 53.333333-85.333333 96-85.333333 128 0 46.933333 38.4 85.333333 85.333333 85.333334zM520.533333 202.666667c-6.4 0-10.666667-2.133333-14.933333-6.4l-74.666667-74.666667c-8.533333-8.533333-8.533333-21.333333 0-29.866667s21.333333-8.533333 29.866667 0l74.666667 74.666667c8.533333 8.533333 8.533333 21.333333 0 29.866667-4.266667 4.266667-10.666667 6.4-14.933334 6.4z" fill="#333333" p-id="10035"></path><path d="M413.866667 761.6c-6.4 0-10.666667-2.133333-14.933334-6.4L157.866667 514.133333c-8.533333-8.533333-8.533333-21.333333 0-29.866666L490.666667 151.466667c8.533333-8.533333 21.333333-8.533333 29.866666 0l241.066667 241.066666c8.533333 8.533333 8.533333 21.333333 0 29.866667L428.8 755.2c-2.133333 4.266667-8.533333 6.4-14.933333 6.4zM202.666667 499.2l211.2 211.2 300.8-300.8-211.2-211.2L202.666667 499.2z" fill="#333333" p-id="10036"></path><path d="M618.666667 556.8h-6.4l-362.666667-119.466667c-10.666667-4.266667-17.066667-14.933333-12.8-27.733333 4.266667-10.666667 14.933333-17.066667 27.733333-12.8l362.666667 119.466667c10.666667 4.266667 17.066667 14.933333 12.8 27.733333-4.266667 8.533333-12.8 12.8-21.333333 12.8zM917.333333 938.666667H106.666667c-12.8 0-21.333333-8.533333-21.333334-21.333334s8.533333-21.333333 21.333334-21.333333h810.666666c12.8 0 21.333333 8.533333 21.333334 21.333333s-8.533333 21.333333-21.333334 21.333334z" fill="#333333" p-id="10037"></path></svg>